<svg width="24" height="24" viewBox="0 0 24 24" fill="none" xmlns="http://www.w3.org/2000/svg">
<circle cx="12" cy="12" r="12" fill="url(#paint0_linear)"/>
<circle cx="12" cy="12" r="12" fill="#5660F2"/>
<path fill-rule="evenodd" clip-rule="evenodd" d="M11.9096 13.6959L11.8139 13.7916C11.7345 13.8709 11.6131 13.8921 11.5129 13.8418C11.2285 13.6991 10.9619 13.5091 10.7248 13.272C9.6072 12.1544 9.53534 10.3782 10.5115 9.17787C10.5267 9.15907 10.5393 9.14341 10.5521 9.12795C10.6341 9.02888 10.7261 8.93805 11.5817 8.08357L12.3696 7.2962C13.5661 6.09972 15.5035 6.09865 16.7006 7.2962C17.8974 8.49257 17.8979 10.4299 16.7006 11.6272C16.3422 11.9857 16.0587 12.2695 15.8332 12.4953L15.3136 13.0154C15.1503 13.1784 14.8688 13.0668 14.8655 12.8362C14.8621 12.6046 14.8156 12.2339 14.7616 12.0087C14.7405 11.9205 14.7676 11.8278 14.8317 11.7637L15.8346 10.761C16.5511 10.044 16.554 8.88209 15.8346 8.16222C15.1176 7.44571 13.9557 7.44283 13.2359 8.16222L11.5911 9.80722C10.8754 10.5231 10.8741 11.6887 11.5911 12.4057C11.7122 12.5271 11.9358 12.6861 12.0901 12.7607C12.1913 12.8096 12.2472 12.9193 12.2336 13.0308C12.204 13.2741 12.0959 13.5096 11.9096 13.6959ZM12.4152 15.9133L11.6273 16.7007C10.4308 17.8972 8.49331 17.8982 7.29623 16.7007C6.09943 15.5043 6.09892 13.567 7.29623 12.3696C7.65469 12.0112 7.93816 11.7274 8.16366 11.5016L8.6833 10.9815C8.84655 10.8185 9.12804 10.93 9.13142 11.1607C9.13481 11.3923 9.18132 11.763 9.23524 11.9882C9.25639 12.0763 9.2293 12.1691 9.16521 12.2332L8.16225 13.2359C7.44574 13.9528 7.44286 15.1148 8.16225 15.8346C8.87921 16.5512 10.0411 16.554 10.761 15.8346L12.4058 14.1896C13.1215 13.4738 13.1228 12.3081 12.4058 11.5911C12.2847 11.4698 12.0611 11.3107 11.9067 11.2361C11.8056 11.1873 11.7496 11.0775 11.7632 10.966C11.7929 10.7227 11.9009 10.4873 12.0873 10.3009L12.183 10.2052C12.2623 10.1259 12.3837 10.1047 12.484 10.1551C12.7683 10.2978 13.0349 10.4878 13.272 10.7249C14.3896 11.8425 14.4615 13.6187 13.4853 14.819C13.4701 14.8378 13.4576 14.8535 13.4448 14.8689C13.3628 14.968 13.2708 15.0588 12.4152 15.9133Z" fill="white"/>
<defs>
<linearGradient id="paint0_linear" x1="12" y1="28.9705" x2="28.9705" y2="12" gradientUnits="userSpaceOnUse">
<stop stop-color="#0072FF"/>
<stop offset="1" stop-color="#00DEB0"/>
</linearGradient>
</defs>
</svg>
